<svg xmlns="http://www.w3.org/2000/svg" viewBox="0 0 512 512">
  <defs>
    <linearGradient id="bg" x1="0" x2="1" y1="0" y2="1">
      <stop offset="0%" stop-color="#f7efe3"/>
      <stop offset="100%" stop-color="#e7d7c1"/>
    </linearGradient>
    <linearGradient id="accent" x1="0" x2="1" y1="0" y2="1">
      <stop offset="0%" stop-color="#d9734e"/>
      <stop offset="100%" stop-color="#bf5f3d"/>
    </linearGradient>
  </defs>
  <rect width="512" height="512" rx="120" fill="url(#bg)"/>
  <rect x="72" y="72" width="368" height="368" rx="88" fill="#fff8ef"/>
  <path d="M172 336V178h112c64 0 92 27 92 75 0 51-33 83-94 83h-48v66h-62zm62-115h41c25 0 39-10 39-29 0-18-13-28-39-28h-41v57z" fill="url(#accent)"/>
  <circle cx="344" cy="344" r="42" fill="#6f8f72"/>
  <path d="M332 344l10 10 18-22" fill="none" stroke="#fff8ef" stroke-width="12" stroke-linecap="round" stroke-linejoin="round"/>
</svg>
